<svg xmlns="http://www.w3.org/2000/svg" width="512" height="512" viewBox="0 0 512 512">
  <defs>
    <linearGradient id="g" x1="0" y1="0" x2="1" y2="1">
      <stop offset="0%" stop-color="#4f6bf0"/>
      <stop offset="100%" stop-color="#35b6e8"/>
    </linearGradient>
  </defs>
  <rect width="512" height="512" fill="url(#g)"/>
  <g transform="translate(256,256) scale(11.7) translate(-12,-12)"
     fill="none" stroke="#ffffff" stroke-width="1.9"
     stroke-linecap="round" stroke-linejoin="round">
    <path d="M8 3.1V7a4 4 0 0 0 8 0V3.1"/>
    <path d="m9 15-1-1"/>
    <path d="m15 15 1-1"/>
    <path d="M9 19c-2.8 0-5-2.2-5-5v-4a8 8 0 0 1 16 0v4c0 2.8-2.2 5-5 5Z"/>
    <path d="m8 19-2 3"/>
    <path d="m16 19 2 3"/>
  </g>
</svg>
